<svg xmlns="http://www.w3.org/2000/svg" viewBox="0 0 48 48"><linearGradient id="X5rURb9A6jIn~aOQjnp9ga" x1="21.5" x2="21.5" y1=".618" y2="14.141" gradientUnits="userSpaceOnUse"><stop offset="0" stop-color="#0d61a9"></stop><stop offset="1" stop-color="#16528c"></stop></linearGradient><path fill="url(#X5rURb9A6jIn~aOQjnp9ga)" d="M24,8.143C24,5,24,3,23.25,3C21.869,3,19,6,19,8.143C19,9.563,20.119,12,21.5,12	S24,9.563,24,8.143z"></path><linearGradient id="X5rURb9A6jIn~aOQjnp9gb" x1="21.5" x2="21.5" y1="-7.382" y2="6.141" gradientTransform="matrix(1 0 0 -1 0 13)" gradientUnits="userSpaceOnUse"><stop offset="0" stop-color="#0d61a9"></stop><stop offset="1" stop-color="#16528c"></stop></linearGradient><path fill="url(#X5rURb9A6jIn~aOQjnp9gb)" d="M24,12.857C24,16,24,18,23,18c-1.381,0-4-2.75-4-5.143C19,11.437,20.119,9,21.5,9	S24,11.437,24,12.857z"></path><linearGradient id="X5rURb9A6jIn~aOQjnp9gc" x1="15.505" x2="29.798" y1="4.909" y2="43.074" gradientUnits="userSpaceOnUse"><stop offset="0" stop-color="#199ae0"></stop><stop offset="1" stop-color="#0782d8"></stop></linearGradient><path fill="url(#X5rURb9A6jIn~aOQjnp9gc)" d="M14.411,16.743c1.493-2.967,3.805-3.777,5.089-3.777v-5c-9.5,0-15.5,9-15.5,16	c0,9.819,6.537,19.075,21.684,19C35.275,42.918,43,35.057,43,25.466v-0.5c0-0.552-0.448-1-1-1l-23.104,0	C15.189,23.966,12.745,20.055,14.411,16.743z"></path><linearGradient id="X5rURb9A6jIn~aOQjnp9gd" x1="-9.818" x2="47.57" y1="32.725" y2="32.725" gradientUnits="userSpaceOnUse"><stop offset="0" stop-color="#32bdef"></stop><stop offset="1" stop-color="#1ea2e4"></stop></linearGradient><path fill="url(#X5rURb9A6jIn~aOQjnp9gd)" d="M43,24.97v0.5c0,9.59-7.73,17.45-17.32,17.5C10.54,43.04,4,33.79,4,23.97	c0-0.49,0.03-0.99,0.09-1.49C6.88,30.28,14.74,35,24,35c8.35,0,15.57-3.84,18.95-10.32C42.99,24.77,43,24.87,43,24.97z"></path><linearGradient id="X5rURb9A6jIn~aOQjnp9ge" x1="-9.477" x2="24.898" y1="21.483" y2="21.483" gradientUnits="userSpaceOnUse"><stop offset="0" stop-color="#199ae0"></stop><stop offset="1" stop-color="#0782d8"></stop></linearGradient><path fill="url(#X5rURb9A6jIn~aOQjnp9ge)" d="M42,23.97H18.9c-3.71,0-6.15-3.92-4.49-7.23c1.49-2.96,3.81-3.77,5.09-3.77v-0.004	c1.381,0,2.5-1.119,2.5-2.5c0-1.381-1.119-2.5-2.5-2.5c-0.031,0-0.059,0.008-0.089,0.009C10.622,8.028,4.857,15.783,4.09,22.48	C6.88,30.28,14.74,35,24,35c8.35,0,15.57-3.84,18.95-10.32C42.83,24.27,42.45,23.97,42,23.97z"></path><linearGradient id="X5rURb9A6jIn~aOQjnp9gf" x1="34" x2="36" y1="28" y2="28" gradientUnits="userSpaceOnUse"><stop offset="0" stop-color="#4c4c4c"></stop><stop offset="1" stop-color="#343434"></stop></linearGradient><circle cx="35" cy="28" r="1" fill="url(#X5rURb9A6jIn~aOQjnp9gf)"></circle><linearGradient id="X5rURb9A6jIn~aOQjnp9gg" x1="-5.477" x2="28.898" y1="40" y2="40" gradientTransform="matrix(-1 0 0 1 63 0)" gradientUnits="userSpaceOnUse"><stop offset="0" stop-color="#199ae0"></stop><stop offset="1" stop-color="#0782d8"></stop></linearGradient><path fill="url(#X5rURb9A6jIn~aOQjnp9gg)" d="M26,46L26,46c2.209,0,4-1.791,4-4v-3c0-2.761-2.239-5-5-5h0v11C25,45.552,25.448,46,26,46z"></path></svg>